{
    "asset" : {
        "generator" : "Khronos glTF Blender I/O v3.4.50",
        "version" : "2.0"
    },
    "scene" : 0,
    "scenes" : [
        {
            "name" : "Scene",
            "nodes" : [
                0,
                1,
                2
            ]
        }
    ],
    "nodes" : [
        {
            "mesh" : 0,
            "name" : "\u30d9\u30b8\u30a8\u30ab\u30fc\u30d6.001",
            "rotation" : [
                0.5,
                -0.5,
                -0.5,
                0.5000000596046448
            ]
        },
        {
            "mesh" : 1,
            "name" : "\u7403",
            "rotation" : [
                0,
                0,
                -0.14355280995368958,
                0.9896427392959595
            ],
            "scale" : [
                0.4534164071083069,
                0.4534164071083069,
                0.4534164071083069
            ],
            "translation" : [
                -1.4218966960906982,
                -1.4715628623962402,
                0
            ]
        },
        {
            "mesh" : 2,
            "name" : "\u7403.001",
            "rotation" : [
                0,
                0,
                -0.0002730191044975072,
                1
            ],
            "scale" : [
                0.4534163773059845,
                0.4534163773059845,
                0.4534164071083069
            ],
            "translation" : [
                0.8122710585594177,
                -1.4887213706970215,
                0
            ]
        }
    ],
    "materials" : [
        {
            "doubleSided" : true,
            "name" : "Green",
            "pbrMetallicRoughness" : {
                "baseColorFactor" : [
                    0.001028986182063818,
                    0.3449711501598358,
                    0.017021851614117622,
                    1
                ],
                "metallicFactor" : 0,
                "roughnessFactor" : 0.5
            }
        },
        {
            "doubleSided" : true,
            "name" : "Sakuranbo",
            "pbrMetallicRoughness" : {
                "baseColorFactor" : [
                    1,
                    0.006072333548218012,
                    0.05559409037232399,
                    1
                ],
                "metallicFactor" : 0,
                "roughnessFactor" : 0.29347825050354004
            }
        }
    ],
    "meshes" : [
        {
            "name" : "\u30d9\u30b8\u30a8\u30ab\u30fc\u30d6.001",
            "primitives" : [
                {
                    "attributes" : {
                        "POSITION" : 0,
                        "TEXCOORD_0" : 1,
                        "NORMAL" : 2
                    },
                    "indices" : 3,
                    "material" : 0
                }
            ]
        },
        {
            "name" : "\u7403",
            "primitives" : [
                {
                    "attributes" : {
                        "POSITION" : 4,
                        "TEXCOORD_0" : 5,
                        "NORMAL" : 6
                    },
                    "indices" : 7,
                    "material" : 1
                }
            ]
        },
        {
            "name" : "\u7403.001",
            "primitives" : [
                {
                    "attributes" : {
                        "POSITION" : 8,
                        "TEXCOORD_0" : 9,
                        "NORMAL" : 10
                    },
                    "indices" : 7,
                    "material" : 1
                }
            ]
        }
    ],
    "accessors" : [
        {
            "bufferView" : 0,
            "componentType" : 5126,
            "count" : 1171,
            "max" : [
                1.218686580657959,
                0.014016966335475445,
                1.3501845598220825
            ],
            "min" : [
                -1.112573266029358,
                -0.014016966335475445,
                -0.8415478467941284
            ],
            "type" : "VEC3"
        },
        {
            "bufferView" : 1,
            "componentType" : 5126,
            "count" : 1171,
            "type" : "VEC2"
        },
        {
            "bufferView" : 2,
            "componentType" : 5126,
            "count" : 1171,
            "type" : "VEC3"
        },
        {
            "bufferView" : 3,
            "componentType" : 5123,
            "count" : 5934,
            "type" : "SCALAR"
        },
        {
            "bufferView" : 4,
            "componentType" : 5126,
            "count" : 696,
            "max" : [
                0.9999997019767761,
                0.7541419267654419,
                0.9999993443489075
            ],
            "min" : [
                -0.9999990463256836,
                -1,
                -1
            ],
            "type" : "VEC3"
        },
        {
            "bufferView" : 5,
            "componentType" : 5126,
            "count" : 696,
            "type" : "VEC2"
        },
        {
            "bufferView" : 6,
            "componentType" : 5126,
            "count" : 696,
            "type" : "VEC3"
        },
        {
            "bufferView" : 7,
            "componentType" : 5123,
            "count" : 3456,
            "type" : "SCALAR"
        },
        {
            "bufferView" : 8,
            "componentType" : 5126,
            "count" : 696,
            "max" : [
                0.9999997019767761,
                0.7541419267654419,
                0.9999993443489075
            ],
            "min" : [
                -0.9999990463256836,
                -1,
                -1
            ],
            "type" : "VEC3"
        },
        {
            "bufferView" : 9,
            "componentType" : 5126,
            "count" : 696,
            "type" : "VEC2"
        },
        {
            "bufferView" : 10,
            "componentType" : 5126,
            "count" : 696,
            "type" : "VEC3"
        }
    ],
    "bufferViews" : [
        {
            "buffer" : 0,
            "byteLength" : 14052,
            "byteOffset" : 0,
            "target" : 34962
        },
        {
            "buffer" : 0,
            "byteLength" : 9368,
            "byteOffset" : 14052,
            "target" : 34962
        },
        {
            "buffer" : 0,
            "byteLength" : 14052,
            "byteOffset" : 23420,
            "target" : 34962
        },
        {
            "buffer" : 0,
            "byteLength" : 11868,
            "byteOffset" : 37472,
            "target" : 34963
        },
        {
            "buffer" : 0,
            "byteLength" : 8352,
            "byteOffset" : 49340,
            "target" : 34962
        },
        {
            "buffer" : 0,
            "byteLength" : 5568,
            "byteOffset" : 57692,
            "target" : 34962
        },
        {
            "buffer" : 0,
            "byteLength" : 8352,
            "byteOffset" : 63260,
            "target" : 34962
        },
        {
            "buffer" : 0,
            "byteLength" : 6912,
            "byteOffset" : 71612,
            "target" : 34963
        },
        {
            "buffer" : 0,
            "byteLength" : 8352,
            "byteOffset" : 78524,
            "target" : 34962
        },
        {
            "buffer" : 0,
            "byteLength" : 5568,
            "byteOffset" : 86876,
            "target" : 34962
        },
        {
            "buffer" : 0,
            "byteLength" : 8352,
            "byteOffset" : 92444,
            "target" : 34962
        }
    ],
    "buffers" : [
        {
            "byteLength" : 100796,
            "uri" : "data:application/octet-stream;base64,"
        }
    ]
}
